<svg xmlns="http://www.w3.org/2000/svg" viewBox="0 0 173.79 239.42"><defs><style>.cls-1{fill:#f2ca85;stroke:#d06809;stroke-width:4px;}.cls-1,.cls-7{stroke-miterlimit:10;}.cls-2{opacity:0.74;}.cls-3{fill:#d06809;}.cls-4{opacity:0.58;}.cls-5{opacity:0.68;}.cls-6{opacity:0.44;}.cls-10,.cls-7{fill:red;}.cls-7{stroke:#000;stroke-width:3px;}.cls-8{fill:#ff0;}.cls-9{fill:blue;}</style></defs><g id="Calque_2" data-name="Calque 2"><g id="Calque_1-2" data-name="Calque 1"><path d="M54.39,200.74A13.57,13.57,0,0,0,42.21,202a27.08,27.08,0,0,0-4.81,4.33c-1.42,1.5-2.82,3-4.09,4.64a27.42,27.42,0,0,0-5.5,11.52,63.89,63.89,0,0,0-1,13c0,3.86,6,3.86,6,0,0-7.12.25-14.23,4.66-20.16a43.55,43.55,0,0,1,3.27-3.79,37.11,37.11,0,0,1,3.86-3.87,7.88,7.88,0,0,1,8.16-1.07c1.51.6,3.3-.66,3.69-2.1a3.07,3.07,0,0,0-2.09-3.69Z"/><path d="M59.32,94.13,53,102.25c-2,2.53-4.38,5-5.82,7.93s-1.74,6.15-2.28,9.26c-.61,3.5-1.15,7-1.54,10.54-.18,1.61,1.5,3,3,3a3.07,3.07,0,0,0,3-3c.33-3,.81-6,1.32-8.94.46-2.63.6-5.82,1.87-8.2s3.31-4.57,5-6.73l6-7.73a3.1,3.1,0,0,0,0-4.25c-1-1-3.24-1.28-4.24,0Z"/><path class="cls-1" d="M106.83,55.42c11,6,38.5,16.72,42,51,6.5,63.71-88,117-97.5,110.4-19.7-13.68,46.54-77.68,11.5-119.4C-.17,22.42,47.12,22.85,106.83,55.42Z"/><g class="cls-2"><path class="cls-3" d="M51.72,80.36A56.54,56.54,0,0,0,71.34,68a54.28,54.28,0,0,1,4.14-3.89,30.84,30.84,0,0,1,4.09-2.62A64.4,64.4,0,0,0,87.4,57a13.65,13.65,0,0,0,5.37-8.69c.34-1.89-2.55-2.7-2.89-.8a10.85,10.85,0,0,1-4.11,7,53.14,53.14,0,0,1-7.3,4.17,33.86,33.86,0,0,0-7.94,5.93,61.92,61.92,0,0,1-8.33,7.09,51.51,51.51,0,0,1-11.27,5.78c-1.8.67-1,3.57.79,2.89Z"/></g><g class="cls-4"><path class="cls-3" d="M72.77,120.64C78,121.8,83.09,119.74,88,118q7.82-2.86,15.56-5.87T119,105.94c4.66-1.9,9.34-3.81,13.35-6.92,4.16-3.22,7.63-7.32,12.27-9.89,1.69-.94.18-3.53-1.51-2.59-4,2.19-7.13,5.45-10.51,8.41a43.7,43.7,0,0,1-12.44,7.29c-9.83,4.08-19.76,7.93-29.74,11.64-2.7,1-5.4,2.05-8.14,2.94s-5.74,1.58-8.67.93c-1.88-.42-2.69,2.47-.8,2.89Z"/></g><g class="cls-5"><path class="cls-3" d="M73.17,141.51a97,97,0,0,1,23.21,4.42,92.63,92.63,0,0,1,11,4.27,36.29,36.29,0,0,1,9.61,6c3.2,2.94,5.55,6.62,7.88,10.25,1,1.62,3.64.12,2.59-1.51a62.21,62.21,0,0,0-7.1-9.64,34.36,34.36,0,0,0-9.66-6.83,95.88,95.88,0,0,0-23.45-8.07,101.74,101.74,0,0,0-14-1.9c-1.92-.12-1.92,2.88,0,3Z"/></g><g class="cls-6"><path class="cls-3" d="M62.34,173.78a84.33,84.33,0,0,1,34.28,19.53c1.41,1.32,3.53-.8,2.12-2.13a87.57,87.57,0,0,0-35.6-20.29,1.5,1.5,0,0,0-.8,2.89Z"/></g><circle class="cls-7" cx="49.33" cy="61.92" r="6"/><circle class="cls-7" cx="72.33" cy="49.92" r="6"/><polygon class="cls-8" points="55.4 0 76.27 27.7 20.87 69.44 0 41.74 26.47 47.74 27.97 21.23 53.86 27.1 55.4 0"/><circle class="cls-9" cx="26.33" cy="59.92" r="2.5"/><circle class="cls-9" cx="67.33" cy="28.92" r="2.5"/><circle class="cls-10" cx="45.33" cy="43.92" r="3.5"/><path d="M135,78.19a27.06,27.06,0,0,1,19.39.07,24,24,0,0,1,8,5.07c2.79,2.68,4.33,6.18,5.85,9.68.64,1.49,2.82,1.82,4.1,1.08A3.09,3.09,0,0,0,173.44,90c-1.73-4-3.61-7.83-6.78-10.89a31.55,31.55,0,0,0-10.31-6.48,32.35,32.35,0,0,0-22.95-.2,3.08,3.08,0,0,0-2.09,3.69A3,3,0,0,0,135,78.19Z"/><path d="M82.35,203c5.62,2.05,10.1,7,13,12.26,3.51,6.44,5,13.85,5.49,21.12a3.07,3.07,0,0,0,3,3,3,3,0,0,0,3-3c-1-15.45-7-33.36-22.88-39.17a3,3,0,0,0-3.69,2.09,3.07,3.07,0,0,0,2.09,3.7Z"/></g></g></svg>